<svg xmlns="http://www.w3.org/2000/svg" width="28" height="35.121" viewBox="0 0 28 35.121">
  <defs>
    <style>
      .cls-1 {
        fill: #008cb8;
      }
    </style>
  </defs>
  <g id="Group_194" data-name="Group 194" transform="translate(-566 -918)">
    <path id="Bookmark_1_" class="cls-1" d="M33.4,7.416A3.732,3.732,0,0,0,30.779,6.33H11.75a1,1,0,0,1-1-1.009,1.058,1.058,0,0,1,1.058-1.058H29.983a.549.549,0,0,0,0-1.1H11.809A2.155,2.155,0,0,0,9.653,5.33a2.1,2.1,0,0,0,2.1,2.1h1.055V20.408a.548.548,0,0,0,.553.55.537.537,0,0,0,.384-.162l3.065-3.065a.549.549,0,0,1,.776,0L20.649,20.8a.537.537,0,0,0,.384.162.548.548,0,0,0,.553-.55V7.428h9.193a2.628,2.628,0,0,1,1.846.765,2.6,2.6,0,0,1,.765,1.847V31.456a2.569,2.569,0,0,1-2.568,2.568H10.242a2.655,2.655,0,0,1-2.656-2.656V4.478A3.384,3.384,0,0,1,10.966,1.1H32.357a.549.549,0,0,0,0-1.1H10.966A4.483,4.483,0,0,0,6.488,4.478V31.367a3.753,3.753,0,0,0,3.754,3.754h20.58a3.667,3.667,0,0,0,3.666-3.666V10.039A3.685,3.685,0,0,0,33.4,7.416ZM20.488,19.084,18.36,16.955a1.646,1.646,0,0,0-2.328,0L13.9,19.084V7.465h6.585Z" transform="translate(559.512 918)"/>
    <path id="Bookmark_1_2" data-name="Bookmark_1_" class="cls-1" d="M10.69,5.665H4.264c-.466,3.153.52,13.065.52,13.065a72.123,72.123,0,0,0-.52,11.245c.178,2.186,1.679,3.289,2.145,3.185.051-.009,4.518-.26,4.55-.26.135,0,17.415.26,17.55.26l2.405-1.69V7.68L29.549,6.055l-9.023-.39ZM19.428,21.64,17.3,19.511c-.311-.311-2.456-2.342-2.9-2.342s-4.5,4.159-4.81,4.47V6.055l9.834-.39Z" transform="translate(562.219 919.288)"/>
  </g>
</svg>
