<svg xmlns="http://www.w3.org/2000/svg" width="41.878" height="29.006" viewBox="0 0 41.878 29.006">
  <defs>
    <style>
      .cls-1 {
        fill: #8bbe4d;
      }

      .cls-2 {
        fill: #5a9449;
      }

      .cls-3 {
        fill: #528443;
      }

      .cls-4 {
        fill: #366626;
      }
    </style>
  </defs>
  <g id="money-cash-svgrepo-com" transform="translate(0 -78.683)">
    <rect id="Rectangle_2702" data-name="Rectangle 2702" class="cls-1" width="28.841" height="15.872" transform="translate(11.702 80.018)"/>
    <rect id="Rectangle_2703" data-name="Rectangle 2703" class="cls-2" width="14.464" height="15.872" transform="translate(26.08 80.018)"/>
    <g id="Group_186" data-name="Group 186" transform="translate(10.367 78.683)">
      <circle id="Ellipse_3" data-name="Ellipse 3" class="cls-3" cx="5.542" cy="5.542" r="5.542" transform="translate(10.214 3.729)"/>
      <path id="Path_55" data-name="Path 55" class="cls-3" d="M158.263,95.891V80.019a1.335,1.335,0,0,0-1.335-1.335H128.087a1.335,1.335,0,0,0-1.335,1.335V95.891a1.335,1.335,0,0,0,1.335,1.335h28.841A1.335,1.335,0,0,0,158.263,95.891Zm-28.841-5.379V85.4a5.549,5.549,0,0,0,4.044-4.044h18.084a5.549,5.549,0,0,0,4.044,4.044v5.115a5.549,5.549,0,0,0-4.044,4.044H133.465A5.549,5.549,0,0,0,129.422,90.512Z" transform="translate(-126.752 -78.684)"/>
    </g>
    <g id="Group_187" data-name="Group 187" transform="translate(26.123 78.683)">
      <path id="Path_56" data-name="Path 56" class="cls-4" d="M333.8,78.683h-14.42v2.67h9.042a5.549,5.549,0,0,0,4.044,4.044v5.115a5.549,5.549,0,0,0-4.044,4.044h-9.042v2.67H333.8a1.335,1.335,0,0,0,1.335-1.335V80.018A1.335,1.335,0,0,0,333.8,78.683Z" transform="translate(-319.375 -78.683)"/>
      <path id="Path_57" data-name="Path 57" class="cls-4" d="M319.376,124.278v11.083a5.542,5.542,0,1,0,0-11.083Z" transform="translate(-319.376 -120.549)"/>
    </g>
    <rect id="Rectangle_2704" data-name="Rectangle 2704" class="cls-1" width="28.841" height="15.872" transform="translate(6.619 85.274)"/>
    <rect id="Rectangle_2705" data-name="Rectangle 2705" class="cls-2" width="14.464" height="15.872" transform="translate(20.851 85.42)"/>
    <g id="Group_188" data-name="Group 188" transform="translate(5.138 84.086)">
      <circle id="Ellipse_4" data-name="Ellipse 4" class="cls-3" cx="5.542" cy="5.542" r="5.542" transform="translate(10.214 3.73)"/>
      <path id="Path_58" data-name="Path 58" class="cls-3" d="M94.33,161.941V146.069a1.335,1.335,0,0,0-1.335-1.335H64.154a1.335,1.335,0,0,0-1.335,1.335v15.872a1.335,1.335,0,0,0,1.335,1.335H92.995A1.335,1.335,0,0,0,94.33,161.941Zm-28.841-5.379v-5.115a5.549,5.549,0,0,0,4.044-4.044H87.616a5.549,5.549,0,0,0,4.044,4.044v5.115a5.549,5.549,0,0,0-4.044,4.044H69.532A5.549,5.549,0,0,0,65.489,156.562Z" transform="translate(-62.819 -144.734)"/>
    </g>
    <g id="Group_189" data-name="Group 189" transform="translate(20.893 84.086)">
      <path id="Path_59" data-name="Path 59" class="cls-4" d="M269.863,144.734h-14.42v2.67h9.042a5.549,5.549,0,0,0,4.044,4.044v5.115a5.549,5.549,0,0,0-4.044,4.044h-9.042v2.67h14.42a1.335,1.335,0,0,0,1.335-1.335V146.069A1.335,1.335,0,0,0,269.863,144.734Z" transform="translate(-255.443 -144.734)"/>
      <path id="Path_60" data-name="Path 60" class="cls-4" d="M255.443,190.328v11.083a5.542,5.542,0,0,0,0-11.083Z" transform="translate(-255.443 -186.599)"/>
    </g>
    <rect id="Rectangle_2706" data-name="Rectangle 2706" class="cls-1" width="28.841" height="15.872" transform="translate(1.481 90.336)"/>
    <rect id="Rectangle_2707" data-name="Rectangle 2707" class="cls-2" width="14.464" height="15.872" transform="translate(15.712 90.483)"/>
    <g id="Group_190" data-name="Group 190" transform="translate(0 89.148)">
      <circle id="Ellipse_5" data-name="Ellipse 5" class="cls-3" cx="5.542" cy="5.542" r="5.542" transform="translate(10.213 3.729)"/>
      <path id="Path_61" data-name="Path 61" class="cls-3" d="M31.511,223.834V207.962a1.335,1.335,0,0,0-1.335-1.335H1.335A1.335,1.335,0,0,0,0,207.962v15.872a1.335,1.335,0,0,0,1.335,1.335H30.176A1.335,1.335,0,0,0,31.511,223.834ZM2.67,218.455V213.34A5.549,5.549,0,0,0,6.713,209.3H24.8a5.549,5.549,0,0,0,4.044,4.044v5.115A5.549,5.549,0,0,0,24.8,222.5H6.713A5.55,5.55,0,0,0,2.67,218.455Z" transform="translate(0 -206.627)"/>
    </g>
    <g id="Group_191" data-name="Group 191" transform="translate(15.755 89.148)">
      <path id="Path_62" data-name="Path 62" class="cls-4" d="M207.044,206.626h-14.42v2.67h9.042a5.549,5.549,0,0,0,4.044,4.044v5.115a5.549,5.549,0,0,0-4.044,4.044h-9.042v2.67h14.42a1.335,1.335,0,0,0,1.335-1.335V207.961A1.335,1.335,0,0,0,207.044,206.626Z" transform="translate(-192.624 -206.626)"/>
      <path id="Path_63" data-name="Path 63" class="cls-4" d="M192.624,252.221V263.3a5.542,5.542,0,0,0,0-11.083Z" transform="translate(-192.624 -248.492)"/>
    </g>
  </g>
</svg>
