<svg xmlns="http://www.w3.org/2000/svg" width="80" height="36.961" viewBox="0 0 80 36.961">
  <defs>
    <style>
      .cls-1 {
        fill: #fee97d;
      }

      .cls-2 {
        fill: #fee45a;
      }
    </style>
  </defs>
  <g id="review" transform="translate(0 -133.839)">
    <path id="Path_48" data-name="Path 48" class="cls-1" d="M150.225,167.247l-8.812,3.343a3.094,3.094,0,0,1-3.948-4.1l2.388-5.655a3.094,3.094,0,0,0-.6-3.327l-5.661-6a3.094,3.094,0,0,1,1.509-5.127l8.159-2.013a3.094,3.094,0,0,0,2.077-1.727l3.166-6.987a3.094,3.094,0,0,1,5.636,0l3.166,6.987a3.1,3.1,0,0,0,2.077,1.727l8.159,2.013a3.094,3.094,0,0,1,1.509,5.127l-5.661,6a3.094,3.094,0,0,0-.6,3.327l2.388,5.655a3.094,3.094,0,0,1-3.948,4.1l-8.812-3.343A3.1,3.1,0,0,0,150.225,167.247Z" transform="translate(-111.403 0)"/>
    <g id="Group_167" data-name="Group 167" transform="translate(21.344 133.839)">
      <path id="Path_49" data-name="Path 49" class="cls-2" d="M148.734,163.47a3.094,3.094,0,0,0-.6-3.327l-5.661-6a3.094,3.094,0,0,1,1.509-5.127L152.142,147a3.093,3.093,0,0,0,2.077-1.727l2.14-4.721-2.218-4.895a3.094,3.094,0,0,0-5.636,0l-3.166,6.987a3.1,3.1,0,0,1-2.077,1.727l-8.159,2.013a3.094,3.094,0,0,0-1.509,5.127l5.661,6a3.094,3.094,0,0,1,.6,3.327l-2.388,5.655a3.094,3.094,0,0,0,3.948,4.1l5.137-1.949Z" transform="translate(-132.747 -133.842)"/>
    </g>
    <path id="Path_50" data-name="Path 50" class="cls-1" d="M9.778,244.321l-4.93,1.87A1.731,1.731,0,0,1,2.64,243.9l1.336-3.164a1.731,1.731,0,0,0-.335-1.861L.473,235.518a1.731,1.731,0,0,1,.844-2.868l4.564-1.126a1.73,1.73,0,0,0,1.162-.966l1.771-3.909a1.731,1.731,0,0,1,3.153,0l1.771,3.909a1.73,1.73,0,0,0,1.162.966l4.564,1.126a1.731,1.731,0,0,1,.844,2.868l-3.167,3.357a1.731,1.731,0,0,0-.335,1.861l1.336,3.164a1.731,1.731,0,0,1-2.209,2.292l-4.93-1.87a1.731,1.731,0,0,0-1.228,0Z" transform="translate(0 -77.034)"/>
    <g id="Group_168" data-name="Group 168" transform="translate(0 148.598)">
      <path id="Path_51" data-name="Path 51" class="cls-2" d="M6.957,245.352l1.336-3.164a1.731,1.731,0,0,0-.335-1.861L4.791,236.97a1.731,1.731,0,0,1,.844-2.868l4.564-1.126a1.73,1.73,0,0,0,1.162-.966l1.518-3.35-.911-2.01a1.731,1.731,0,0,0-3.153,0l-1.771,3.909a1.731,1.731,0,0,1-1.162.966L1.318,232.65a1.731,1.731,0,0,0-.844,2.868l3.167,3.357a1.731,1.731,0,0,1,.335,1.861L2.64,243.9a1.731,1.731,0,0,0,2.209,2.292l2.091-.794C6.945,245.383,6.95,245.368,6.957,245.352Z" transform="translate(0 -225.633)"/>
    </g>
    <path id="Path_52" data-name="Path 52" class="cls-1" d="M379.3,244.321l4.93,1.87a1.731,1.731,0,0,0,2.209-2.292l-1.336-3.164a1.731,1.731,0,0,1,.335-1.861l3.167-3.357a1.731,1.731,0,0,0-.844-2.868l-4.564-1.126a1.73,1.73,0,0,1-1.162-.966l-1.771-3.909a1.731,1.731,0,0,0-3.153,0l-1.771,3.909a1.731,1.731,0,0,1-1.162.966l-4.564,1.126a1.731,1.731,0,0,0-.844,2.868l3.167,3.357a1.731,1.731,0,0,1,.335,1.861l-1.336,3.164a1.731,1.731,0,0,0,2.209,2.292l4.93-1.87A1.731,1.731,0,0,1,379.3,244.321Z" transform="translate(-309.076 -77.034)"/>
    <g id="Group_169" data-name="Group 169" transform="translate(59.217 148.598)">
      <path id="Path_53" data-name="Path 53" class="cls-2" d="M464.754,352.464a1.729,1.729,0,0,0-.305-.085l.475.18a1.806,1.806,0,0,0,.309.086Z" transform="translate(-448.989 -332)"/>
      <path id="Path_54" data-name="Path 54" class="cls-2" d="M377.029,242.511a1.731,1.731,0,0,0-.335-1.861l-3.167-3.357a1.731,1.731,0,0,1,.844-2.868l4.564-1.126a1.73,1.73,0,0,0,1.162-.966l1.37-3.023-1.206-2.661a1.731,1.731,0,0,0-3.153,0l-1.771,3.909a1.731,1.731,0,0,1-1.162.966l-4.564,1.126a1.731,1.731,0,0,0-.844,2.868l3.167,3.357a1.731,1.731,0,0,1,.335,1.861l-1.336,3.164a1.731,1.731,0,0,0,2.209,2.292l2.779-1.054Z" transform="translate(-368.293 -225.632)"/>
    </g>
  </g>
</svg>
